<?xml version="1.0" encoding="UTF-8" standalone="no"?>
<svg
   xmlns:dc="http://purl.org/dc/elements/1.1/"
   xmlns:cc="http://creativecommons.org/ns#"
   xmlns:rdf="http://www.w3.org/1999/02/22-rdf-syntax-ns#"
   xmlns:svg="http://www.w3.org/2000/svg"
   xmlns="http://www.w3.org/2000/svg"
   xmlns:sodipodi="http://sodipodi.sourceforge.net/DTD/sodipodi-0.dtd"
   xmlns:inkscape="http://www.inkscape.org/namespaces/inkscape"
   width="246.463"
   height="192.354"
   viewBox="0 0 246.463 192.354"
   version="1.1"
   id="svg113"
   sodipodi:docname="logo.svg"
   inkscape:version="0.92.4 (5da689c313, 2019-01-14)">
  <metadata
     id="metadata119">
    <rdf:RDF>
      <cc:Work
         rdf:about="">
        <dc:format>image/svg+xml</dc:format>
        <dc:type
           rdf:resource="http://purl.org/dc/dcmitype/StillImage" />
      </cc:Work>
    </rdf:RDF>
  </metadata>
  <defs
     id="defs117" />
  <sodipodi:namedview
     pagecolor="#ffffff"
     bordercolor="#666666"
     borderopacity="1"
     objecttolerance="10"
     gridtolerance="10"
     guidetolerance="10"
     inkscape:pageopacity="0"
     inkscape:pageshadow="2"
     inkscape:window-width="1920"
     inkscape:window-height="1017"
     id="namedview115"
     showgrid="false"
     inkscape:zoom="2.4538091"
     inkscape:cx="120.69726"
     inkscape:cy="126.43684"
     inkscape:window-x="1912"
     inkscape:window-y="-8"
     inkscape:window-maximized="1"
     inkscape:current-layer="XMLID_5742_" />
  <g
     id="logo"
     transform="translate(-75.4 -135)">
    <g
       id="object">
      <g
         id="XMLID_5742_"
         transform="translate(0,0.81505934)">
        <g
           id="XMLID_5774_">
          <g
             id="XMLID_5896_">
            <path
               id="XMLID_5897_"
               d="m 182.8,155 1.8,-0.9 c -3.2,-2 -12.1,-4.2 -19.5,-6.6 l 4.7,1.9 c -1,0.6 3,2.3 2.7,3.1 0.3,-1.7 6.6,1.6 10.3,2.5 z"
               inkscape:connector-curvature="0"
               style="fill:#c1dcf2" />
          </g>
          <g
             id="XMLID_5894_">
            <path
               id="XMLID_5895_"
               d="m 196.1,156.3 -12.5,-3.1 4.9,2.1 z"
               inkscape:connector-curvature="0"
               style="fill:#c1dcf2" />
          </g>
          <g
             id="XMLID_5892_">
            <path
               id="XMLID_5893_"
               d="m 193.9,158.4 c 0.5,0.3 1.4,0.6 2,0.9 a 7.218,7.218 0 0 0 -2,-0.9 z"
               inkscape:connector-curvature="0"
               style="fill:#c1dcf2" />
          </g>
          <g
             id="XMLID_5890_">
            <path
               id="XMLID_5891_"
               d="m 212.9,162.3 a 136.318,136.318 0 0 1 -16.7,-5.5 36.272,36.272 0 0 0 4.3,2 c -3.9,-1.1 -9.3,-2.1 -13.9,-3.3 1.7,1.6 4.5,1.8 7.4,2.9 -0.7,-0.4 -1,-0.8 0.5,-0.6 4.1,2.4 7.3,1.7 11.2,3.8 l -4.1,-0.7 c 0.2,1.2 8.6,1.4 7.8,3.2 5.6,0.2 -3.7,-2.9 3.5,-1.8 z"
               inkscape:connector-curvature="0"
               style="fill:#c1dcf2" />
          </g>
          <g
             id="XMLID_5888_">
            <path
               id="XMLID_5889_"
               d="m 217,164.1 c -0.4,0.1 -0.6,0.2 -0.5,0.3 0.4,-0.1 0.6,-0.2 0.5,-0.3 z"
               inkscape:connector-curvature="0"
               style="fill:#c1dcf2" />
          </g>
          <g
             id="XMLID_5886_">
            <path
               id="XMLID_5887_"
               d="m 215.7,165.4 c 4.2,1.4 10.6,3.3 12.2,2.2 -4.1,-2.3 -5.3,-1.4 -7.5,-1.4 -0.9,-0.5 -3.6,-1.4 -3.9,-1.9 -0.8,0.2 -2,0.4 -0.8,1.1 z"
               inkscape:connector-curvature="0"
               style="fill:#c1dcf2" />
          </g>
          <g
             id="XMLID_5884_">
            <path
               id="XMLID_5885_"
               d="m 235.5,170.3 -2,-0.4 v -1 c -0.4,0.1 -2.4,1.4 -6.6,0 2,1.4 3,0.7 5.1,1.7 z"
               inkscape:connector-curvature="0"
               style="fill:#c1dcf2" />
          </g>
          <g
             id="XMLID_5882_">
            <path
               id="XMLID_5883_"
               d="m 230.7,163.6 a 72.638,72.638 0 0 0 -7.8,-0.6 c 4.9,0.5 12.6,4.2 12.1,1.7 a 17.59,17.59 0 0 0 -4.8,-0.9 z"
               inkscape:connector-curvature="0"
               style="fill:#c1dcf2" />
          </g>
          <g
             id="XMLID_5880_">
            <path
               id="XMLID_5881_"
               d="m 235.3,164.7 c 2.5,1.3 4.3,1.5 7.6,2.1 -2.4,-0.6 -5.2,-1.4 -7.6,-2.1 z"
               inkscape:connector-curvature="0"
               style="fill:#c1dcf2" />
          </g>
          <g
             id="XMLID_5878_">
            <path
               id="XMLID_5879_"
               d="m 235,164.7 a 0.367,0.367 0 0 1 0.3,0.1 c -0.1,-0.1 -0.2,-0.2 -0.3,-0.1 z"
               inkscape:connector-curvature="0"
               style="fill:#c1dcf2" />
          </g>
          <g
             id="XMLID_5876_">
            <path
               id="XMLID_5877_"
               d="m 245.2,174.2 -6.3,-2.3 1.4,0.8 z"
               inkscape:connector-curvature="0"
               style="fill:#c1dcf2" />
          </g>
          <g
             id="XMLID_5874_">
            <path
               id="XMLID_5875_"
               d="m 238.7,168 c 5.1,1.7 -2.5,-1.9 2.3,-0.4 1.4,0.3 -7.1,-2.1 -7.7,-1.6 1.2,0.7 5.1,0.8 5.4,2 z"
               inkscape:connector-curvature="0"
               style="fill:#c1dcf2" />
          </g>
          <g
             id="XMLID_5872_">
            <path
               id="XMLID_5873_"
               d="m 254.5,177.3 c 2.2,0 5.2,2.3 7.9,2.8 l 1.2,-0.4 c -5.9,-0.4 -6,-3.6 -9.1,-2.4 z"
               inkscape:connector-curvature="0"
               style="fill:#c1dcf2" />
          </g>
          <g
             id="XMLID_5870_">
            <path
               id="XMLID_5871_"
               d="m 277.3,182.9 c -0.8,0.2 -2.4,-0.2 -2.3,0.4 -1.9,-0.7 -1.3,-1.2 -2.5,-1.9 -3.5,-0.2 -8.5,-2.4 -11.4,-2.5 a 7.277,7.277 0 0 1 2.5,0.9 c 5,2.1 12.2,3.2 15.5,5.8 -0.6,-1.1 2.7,-1.1 -1.8,-2.7 z"
               inkscape:connector-curvature="0"
               style="fill:#c1dcf2" />
          </g>
          <g
             id="XMLID_5868_">
            <path
               id="XMLID_5869_"
               d="m 258.1,174 c -1.1,-0.4 -2.1,-0.7 -3.1,-1.1 a 10.279,10.279 0 0 0 3.1,1.1 z"
               inkscape:connector-curvature="0"
               style="fill:#c1dcf2" />
          </g>
          <g
             id="XMLID_5866_">
            <path
               id="XMLID_5867_"
               d="m 258.9,173.7 c 1.7,-0.5 5.5,1.6 6.5,1 -0.1,-0.4 -2.3,-1.4 -3,-1.8 -1.5,1.3 -5.8,-1.8 -4.4,1.1 a 43.006,43.006 0 0 0 5.3,1.4 z"
               inkscape:connector-curvature="0"
               style="fill:#c1dcf2" />
          </g>
          <g
             id="XMLID_5864_">
            <path
               id="XMLID_5865_"
               d="m 250.4,170.4 -2.1,0.6 a 44.812,44.812 0 0 1 6.6,1.8 c -1,-0.7 -0.2,-1.2 -4.5,-2.4 z"
               inkscape:connector-curvature="0"
               style="fill:#c1dcf2" />
          </g>
          <g
             id="XMLID_5862_">
            <path
               id="XMLID_5863_"
               d="m 262.4,172.9 c 0.1,-0.1 0.2,-0.2 0.2,-0.3 -0.5,0 -0.4,0.1 -0.2,0.3 z"
               inkscape:connector-curvature="0"
               style="fill:#c1dcf2" />
          </g>
          <g
             id="XMLID_5860_">
            <path
               id="XMLID_5861_"
               d="m 283.4,181.4 c -0.5,-0.2 -1,-0.3 -1.6,-0.5 v 0 c 0.2,0.1 0.3,0.1 0.5,0.2 0.3,0.1 0.7,0.3 1,0.4 0.4,0.1 0.8,0.3 1.2,0.4 1.2,0.4 2.3,0.8 3.5,1.2 a 19.507,19.507 0 0 0 -2.9,-1.1 c -0.5,-0.2 -1.1,-0.4 -1.7,-0.6 z"
               inkscape:connector-curvature="0"
               style="fill:#c1dcf2" />
          </g>
          <g
             id="XMLID_5858_">
            <path
               id="XMLID_5859_"
               d="m 278.6,179.5 c 1.4,0.8 1.9,1.6 -0.3,1.2 l -1.8,-1.7 -6.2,-0.1 c 4.6,0.3 9,3.8 10.4,2.1 l 2,1.4 -0.9,-1.3 -1.5,-0.6 a 10.626,10.626 0 0 0 -1.7,-1 z"
               inkscape:connector-curvature="0"
               style="fill:#c1dcf2" />
          </g>
          <g
             id="XMLID_5856_">
            <path
               id="XMLID_5857_"
               d="m 295.2,184.7 0.3,0.2 a 57.953,57.953 0 0 1 -7.5,-1.8 l 0.6,0.3 a 32.078,32.078 0 0 1 5,2.6 c -1.4,2.8 -2.7,4.9 -3.6,6.7 -0.3,0.6 -0.6,1.2 -0.9,1.7 a 0.367,0.367 0 0 1 -0.3,0.1 7.347,7.347 0 0 1 1.1,-3.7 c 0.7,-1.4 1.7,-3 2.1,-3.9 -0.5,-0.2 -0.9,-0.3 -1.2,-0.1 a 2.181,2.181 0 0 0 0.5,0.4 c -1,1.9 -1.8,3.9 -2.5,5.6 a 16.474,16.474 0 0 1 -0.9,2.2 3.347,3.347 0 0 1 -0.9,1.4 c 0,1 1.3,-1.5 0.8,1.2 -1.5,3.8 -1.7,3.1 -3.1,5.3 l 0.2,2.4 c -1.3,0 -2.3,4.1 -3.5,8.4 1.3,-2.9 2.6,-5.8 3.9,-8.9 0.7,-1.8 1.5,-3.6 2.2,-5.5 0.1,-0.4 0.3,-0.8 0.4,-1.2 -1,7.8 -5,14.2 -7.1,21.9 -0.3,4 1.6,-3.5 2.3,-3.7 1.4,1.6 -2,3.4 -1.1,5.6 1.1,0.9 3.7,-7.6 5.4,-10.7 0.7,-3 0.3,-3 -0.1,-4.1 0.9,-0.5 2,-3.4 2.9,-3.9 a 23.8,23.8 0 0 1 0.9,-4.2 l 0.6,-1.8 c 0.3,-0.7 0.5,-1.3 0.7,-1.9 a 45.1,45.1 0 0 0 2.8,-9.8 c 0.2,-0.4 0.4,-0.6 0.5,-0.6 v 0 z"
               inkscape:connector-curvature="0"
               style="fill:#c1dcf2" />
          </g>
          <g
             id="XMLID_5854_">
            <path
               id="XMLID_5855_"
               d="m 295.8,184.9 -1.1,3.7 c -0.4,1.2 0,0.2 0.4,-1.1 0.5,-1.2 0.9,-2.7 0.7,-2.6 z"
               inkscape:connector-curvature="0"
               style="fill:#c1dcf2" />
          </g>
          <g
             id="XMLID_5852_">
            <path
               id="XMLID_5853_"
               d="m 278.6,179.5 a 3.7,3.7 0 0 0 -1.1,-0.5 9.746,9.746 0 0 1 1.1,0.5 z"
               inkscape:connector-curvature="0"
               style="fill:#c1dcf2" />
          </g>
          <g
             id="XMLID_5850_">
            <path
               id="XMLID_5851_"
               d="m 271.3,177.1 -3.2,-0.9 a 10.309,10.309 0 0 0 3.2,0.9 z"
               inkscape:connector-curvature="0"
               style="fill:#c1dcf2" />
          </g>
          <g
             id="XMLID_5848_">
            <path
               id="XMLID_5849_"
               d="m 275,177.1 c -4.9,-1.9 -2.3,0.1 -3.7,0 l 4.6,1.3 z"
               inkscape:connector-curvature="0"
               style="fill:#c1dcf2" />
          </g>
          <g
             id="XMLID_5846_">
            <path
               id="XMLID_5847_"
               d="m 280.7,224.5 c 0,2.7 1.4,-0.1 2.1,-3.1 -0.8,2.6 -1.8,3.8 -2.1,3.1 z"
               inkscape:connector-curvature="0"
               style="fill:#c1dcf2" />
          </g>
          <g
             id="XMLID_5844_">
            <path
               id="XMLID_5845_"
               d="m 264.9,256.5 c -0.4,0.2 -0.9,0.9 -1.3,3.1 a 10.521,10.521 0 0 0 1.3,-3.1 z"
               inkscape:connector-curvature="0"
               style="fill:#c1dcf2" />
          </g>
          <g
             id="XMLID_5842_">
            <path
               id="XMLID_5843_"
               d="m 288.9,191.1 c -0.1,0.3 -0.2,0.7 -0.3,1 a 6.214,6.214 0 0 0 0.3,-1 z"
               inkscape:connector-curvature="0"
               style="fill:#c1dcf2" />
          </g>
          <g
             id="XMLID_5840_">
            <path
               id="XMLID_5841_"
               d="m 273.2,232.6 0.3,-0.4 c -0.2,0.1 -0.2,0.2 -0.3,0.4 z"
               inkscape:connector-curvature="0"
               style="fill:#c1dcf2" />
          </g>
          <g
             id="XMLID_5838_">
            <path
               id="XMLID_5839_"
               d="m 159.3,148.3 c -0.7,-0.2 -1.5,-0.4 -2.3,-0.6 0.6,0.2 1.4,0.4 2.3,0.6 z"
               inkscape:connector-curvature="0"
               style="fill:#c1dcf2" />
          </g>
          <g
             id="XMLID_5836_">
            <path
               id="XMLID_5837_"
               d="m 161.8,147.7 a 11.844,11.844 0 0 0 -2.2,-1.4 11.432,11.432 0 0 0 -3.1,-0.9 9.432,9.432 0 0 1 2.7,1.5 c 0.2,0.2 0,0.2 -0.3,0.2 -0.3,0 -0.7,0 -0.7,0.1 0,0.2 0.3,0.5 1.1,1.1 2.7,0.7 5.5,1.4 8.2,2 a 15.215,15.215 0 0 1 -5.7,-2.6 z"
               inkscape:connector-curvature="0"
               style="fill:#c1dcf2" />
          </g>
          <g
             id="XMLID_5834_">
            <path
               id="XMLID_5835_"
               d="m 167.5,150.3 c 0.4,0.1 0.9,0.2 1.4,0.3 a 3.529,3.529 0 0 1 -1.4,-0.3 z"
               inkscape:connector-curvature="0"
               style="fill:#c1dcf2" />
          </g>
          <g
             id="XMLID_5832_">
            <path
               id="XMLID_5833_"
               d="m 220.4,162.7 h -0.3 c 0.6,0.1 0.8,0.1 0.3,0 z"
               inkscape:connector-curvature="0"
               style="fill:#c1dcf2" />
          </g>
          <g
             id="XMLID_5830_">
            <path
               id="XMLID_5831_"
               d="m 143.9,298.6 c 1.2,0.6 4.1,0.7 6.2,1.7 -1.9,-0.7 -5.1,-2.7 -6.2,-1.7 z"
               inkscape:connector-curvature="0"
               style="fill:#c1dcf2" />
          </g>
          <g
             id="XMLID_5828_">
            <path
               id="XMLID_5829_"
               d="m 142.7,303.1 0.1,-0.2 a 4.484,4.484 0 0 1 -1.1,-0.1 c 0.3,0.1 0.6,0.2 1,0.3 z"
               inkscape:connector-curvature="0"
               style="fill:#c1dcf2" />
          </g>
          <g
             id="XMLID_5826_">
            <path
               id="XMLID_5827_"
               d="m 143,302.4 -0.2,0.5 c 0.6,0 0.9,-0.1 0.2,-0.5 z"
               inkscape:connector-curvature="0"
               style="fill:#c1dcf2" />
          </g>
          <g
             id="XMLID_5824_">
            <path
               id="XMLID_5825_"
               d="m 134.3,300.4 4.2,1.4 c -0.3,0.7 -0.5,1.1 -3,0.2 0.5,0.5 3,0.7 4.3,1 l -0.9,-0.4 a 15.206,15.206 0 0 1 2.8,0.2 c -3.7,-1.2 -6,-4 -7.4,-2.4 z"
               inkscape:connector-curvature="0"
               style="fill:#c1dcf2" />
          </g>
          <g
             id="XMLID_5796_">
            <path
               id="XMLID_5823_"
               d="m 128.3,299.3 c 1.6,0.5 5.5,1.6 4.6,0.3 z"
               inkscape:connector-curvature="0"
               style="fill:#c1dcf2" />
          </g>
          <g
             id="XMLID_5794_">
            <path
               id="XMLID_5795_"
               d="m 122.2,296.2 c 4.7,2.1 2.4,0.1 5.3,0.7 a 8.4,8.4 0 0 0 -2.4,-0.6 c 2.4,1.3 -1.8,-0.1 -2.9,-0.1 z"
               inkscape:connector-curvature="0"
               style="fill:#c1dcf2" />
          </g>
          <g
             id="XMLID_5792_">
            <path
               id="XMLID_5793_"
               d="m 127.5,296.9 1.2,0.3 a 2.663,2.663 0 0 0 -1.2,-0.3 z"
               inkscape:connector-curvature="0"
               style="fill:#c1dcf2" />
          </g>
          <g
             id="XMLID_5790_">
            <path
               id="XMLID_5791_"
               d="m 174,305.9 -0.2,-0.5 c -0.2,0.1 -0.2,0.2 0.2,0.5 z"
               inkscape:connector-curvature="0"
               style="fill:#c1dcf2" />
          </g>
          <g
             id="XMLID_5788_">
            <path
               id="XMLID_5789_"
               d="m 112.6,292.1 -0.5,-0.2 -2.1,-0.6 z"
               inkscape:connector-curvature="0"
               style="fill:#c1dcf2" />
          </g>
          <g
             id="XMLID_5786_">
            <path
               id="XMLID_5787_"
               d="m 182.7,146.6 -0.5,0.1 a 1.088,1.088 0 0 0 0.5,-0.1 z"
               inkscape:connector-curvature="0"
               style="fill:#c1dcf2" />
          </g>
          <g
             id="XMLID_5784_">
            <path
               id="XMLID_5785_"
               d="M 105,274.6 Z"
               inkscape:connector-curvature="0"
               style="fill:#c1dcf2" />
          </g>
          <g
             id="XMLID_5779_">
            <path
               id="XMLID_5780_"
               d="m 272.9,231.4 c 1.5,-3.3 0,2.5 1.4,-0.2 -0.3,3.5 -3.9,7.2 -5,13.3 0.4,-2.2 1,-1.1 0.9,0.1 -1.7,3.7 -3.3,10.1 -4.5,14 a 0.614,0.614 0 0 1 0.6,0.1 c -1.5,3.3 -1.8,4.3 -3.7,7.9 -5.9,13.8 -10.2,34 -15.9,45.5 -2.2,3.5 0.2,-4.3 -0.8,-2.9 a 75.937,75.937 0 0 0 -0.9,11.2 293.621,293.621 0 0 0 -32.7,-11.8 c -1.7,-0.2 -3.2,-0.3 -1.1,0.8 3.8,0.5 5.4,2 2.5,1.9 -4.1,-0.7 0.7,-0.9 -4.2,-1.4 l 2.1,1 c -4.6,-1.2 -7,-1.5 -10.1,-1.2 -17.6,-6.8 -38.1,-9.2 -53.1,-16.1 l -5.7,-0.3 c -0.1,-0.6 -0.5,-1.5 -3.2,-2 0.9,0.4 2.6,0.9 2.1,1 l -12,-3.6 1,1 a 39.536,39.536 0 0 0 -7.3,-2.3 c -2.7,-0.7 -5.8,-1.6 -6.6,-2.5 -0.2,0.4 -2.3,0 -2.6,0.5 a 23.293,23.293 0 0 0 -2.8,-1.1 c 0.8,-2.1 1.4,-4.2 2,-6.2 0.8,-2.7 1.5,-5.4 2.3,-8 a 81.571,81.571 0 0 1 5.2,-14.5 c -0.7,0.8 -0.7,-0.3 -0.9,-0.7 1.1,-3.9 0.7,-0.8 1.5,-1.6 -2.7,-2.6 17,-52.4 17.3,-59.2 -0.4,0.9 -0.7,1.9 -0.9,1.5 2.4,-8.2 4.9,-16.8 7.4,-25.2 1.2,-4.2 2.5,-8.5 3.7,-12.7 0.5,-1.9 1.1,-3.9 1.6,-5.8 0.5,-1.7 0.9,-3.5 1.4,-5.2 1.7,0.4 3.3,0.9 4.8,1.3 -2,-0.6 -2.4,-1.3 -2.6,-1.9 -0.2,-0.6 -0.2,-1.2 -1.8,-1.9 -1.5,-0.2 -0.3,0.4 0.6,0.8 1,0.5 1.7,0.9 -0.2,0.5 a 10.349,10.349 0 0 0 -2,-1.1 6.424,6.424 0 0 0 -0.7,3.7 5.537,5.537 0 0 1 -0.2,1.8 10.019,10.019 0 0 1 -1.3,2.5 c 0,-1.1 0.1,-2.4 0.1,-3.7 -0.8,4 -1.7,7.8 -2.8,12 -1.1,4.2 -2.3,8.5 -3.6,12.5 l -1,-1.1 c -0.4,3.1 -1.7,7.3 -3,7.5 3.1,-9.3 0.8,-11.7 3.7,-17.1 0.2,0.8 0.1,0.4 0.6,-0.1 a 24.083,24.083 0 0 1 0.3,-5.1 20.566,20.566 0 0 1 0.7,-3.2 c 0.2,-0.5 0.3,-1.1 0.5,-1.6 0.1,-0.4 0.3,-0.7 0.4,-1.1 0.2,-0.4 0.3,-0.8 0.5,-1.2 v 1.4 a 4.483,4.483 0 0 0 0.1,1.2 c 1.2,-3.9 2.4,-8 3.7,-12.1 2.9,0.9 5.9,1.8 8.7,2.6 1.3,0.4 2.6,0.8 3.9,1.1 1,0.3 2,0.5 3,0.8 -1.7,-1.1 0.5,-1.1 3.4,-0.4 4.4,1.6 -1.5,0.1 0.2,1.2 2.3,2.2 11,2.6 14.2,3.6 -1.1,0 8.4,3.3 2.4,2.2 7,2.5 12.6,2.1 16.9,5.1 a 12,12 0 0 1 4.8,-0.1 l -0.5,1.1 2.6,-0.1 c 4.8,1.5 6.4,4.4 11.5,4.9 -0.9,-0.2 -2.8,-0.7 -2.8,-1.3 0.7,-0.9 9.9,1.6 8.5,-0.2 l -4.2,-0.4 c 1.7,-0.5 -3.6,-1.9 -2.3,-2.2 l -11,-2.6 0.1,-1 2.4,1.2 c 3.8,-1.1 -5.3,-1.4 -8,-3.5 l -0.3,0.7 c -9.1,-3.5 -3.6,-1.9 -11.1,-4.8 l -2.6,0.1 c -0.4,0.1 7.2,1.1 6.7,2.2 -5.2,-0.7 -11.9,-3 -17.5,-3.6 l 4.2,-0.7 c -2,0.1 -4.7,-2.6 -9.6,-3.9 l 4.3,2 c -2.1,0.3 -5.3,-0.6 -8.7,-1.7 -1.7,-0.5 -3.5,-1.1 -5.2,-1.6 -0.5,-0.1 -0.9,-0.3 -1.4,-0.4 l -2.1,-0.6 a 32.368,32.368 0 0 0 -4,-0.9 c 2.7,0.8 5.4,1.7 5.7,2.3 -2.3,-0.1 -8.2,-2.2 -12,-3.7 0.1,-1.1 6.2,0.5 12,2 0.3,0.1 0.7,0.2 1,0.3 0.2,0 0.4,0.1 0.6,0.1 0.4,0.1 0.8,0.2 1.1,0.3 0.7,0.2 1.4,0.3 1.9,0.4 1.1,0.2 1.7,0.1 1.5,-0.4 a 30.649,30.649 0 0 0 -3.8,-1 c -0.3,-0.1 -0.6,-0.1 -0.9,-0.2 a 4.077,4.077 0 0 1 -0.7,-0.2 l -0.9,-0.2 c -1.1,-0.2 -2.2,-0.5 -3.3,-0.7 -4.2,-0.9 -7.7,-1.4 -10.8,-2.1 a 46.285,46.285 0 0 1 -1.6,5.5 c 0.3,-2.1 0.6,-4.4 0.9,-6.8 h 0.4 l -0.4,-0.1 -1.4,5.9 0.6,-1.7 a 18.645,18.645 0 0 1 -1.3,5.6 q -0.6,1.5 -1.2,3.3 c -0.2,0.6 -0.4,1.2 -0.6,1.7 l -0.3,0.9 -0.1,0.4 -0.1,0.3 c 0,-0.1 -0.1,-0.2 -0.1,-0.3 v -1.3 l -0.1,-1.9 -1.9,6.2 0.5,-0.5 a 143.909,143.909 0 0 1 -6.9,21.6 l 1.7,-4 a 17.838,17.838 0 0 1 -1.2,4.6 c 0.9,-0.4 2.2,-5.6 2.7,-5.1 -2.2,6.7 -3.3,7.4 -5.9,13.9 0.2,0.8 3.1,-3.8 1.8,1.9 -0.9,-0.7 -2.7,4 -2.6,0 -0.7,5 -1.9,3.4 -1.9,7.5 a 7.59,7.59 0 0 1 0.6,-1.8 c 1,-1.1 0,2.2 -0.3,3.6 a 22.392,22.392 0 0 0 -3.6,6.5 l -1.6,7.7 c -0.2,0.3 -0.4,-0.2 -0.4,-0.2 -1.7,7.3 -4.7,14.8 -5.7,20.3 0.2,0.8 0.2,3 1.4,-0.9 0,3.3 -2.1,7.1 -3.5,10.2 l -0.2,-3 c -2.5,9.2 -7.2,19.6 -8.6,28.2 l 1.2,-1.3 c -0.5,2 -1,3.9 -1.6,5.8 -0.3,0.9 -0.6,1.9 -0.9,2.8 -0.3,0.9 -0.6,1.9 -0.9,2.7 -2,6.4 -3.9,12.2 -4.7,15.9 v 0 c 1.2,-2.8 1.6,-3.6 1.8,-3.5 a 13.3,13.3 0 0 1 -0.6,2.9 c 3.5,0.9 8.6,2.5 10.1,2.7 -2.9,-1 -6.2,-2 -9.7,-3 1.1,-3.9 2.1,-7.7 2.8,-10.6 a 46.244,46.244 0 0 1 1.3,-4.5 l -0.2,0.2 2.4,-10.8 1.1,0.5 c -2.3,-1.4 5.3,-13.8 2.5,-12.5 0.7,-3 2.1,-3.9 2.6,-3.3 l 1.7,-8.4 c 0.7,-0.8 1.4,1.3 1,2.2 -1,3.2 -1.6,8.8 -3.7,11.6 -0.1,2.9 2,-2.1 0.5,3.9 a 119.818,119.818 0 0 0 -4.8,13.5 c -0.8,2.8 -1.7,5.5 -2.4,8.1 -1,3.2 -1.9,6.2 -3,9.1 1.3,0.5 2.6,0.9 3.7,1.4 -2.1,-1.1 -4.5,-1.8 -0.7,-1.3 2,0.9 4.2,1.9 6.5,2.9 1.6,0.4 3.1,0.7 4.2,0.9 0.8,0.1 1.6,0.1 2.3,0.2 a 8.308,8.308 0 0 1 4,1.1 c 0.6,-0.2 -1.1,-0.9 -3.3,-1.7 -1.2,-0.4 -2.4,-0.9 -3.6,-1.3 a 22.671,22.671 0 0 1 -3.5,-1.4 11.813,11.813 0 0 1 4.3,0.3 6.9,6.9 0 0 1 0.8,0.3 c 0.3,0.1 0.5,0.2 0.8,0.3 0.5,0.2 1,0.5 1.5,0.7 2,1 4,2.1 6.3,1.8 2.2,-1 -10.5,-2.7 -6.5,-3.6 l 5.4,2 c -1.6,-1.5 -3.9,-2 -5.9,-2.5 -1.9,-0.4 -4.1,-0.9 -4.2,-2 a 15.2,15.2 0 0 1 4.8,1.2 19.72,19.72 0 0 1 3.5,1.5 c 1.8,0.1 -2.8,-2.1 0.4,-1.7 2.9,1.7 4.7,0.9 7,2.5 l -1.7,0.5 c 2.3,0.6 7.9,2.9 10.6,3.3 -0.2,1.4 -7,0.1 -9.5,-0.8 2,1.4 6.3,2.4 8.6,3 l -4,-1.7 c 6.2,1.7 5.4,-0.6 12.4,1.9 5.9,1.5 1.2,1.6 2.9,2.7 6.8,1.2 2.3,0.6 2.5,-0.7 5.3,1.4 6.3,2.4 13.2,4.2 -4.1,-0.7 -5.3,-0.4 -9.1,-1.9 l 0.9,1.4 c 5.4,1 9.8,1 16.3,2 l 0.3,1 c 1.5,-0.3 51.9,14.8 49.2,12.3 0.7,0.4 -10.1,-2.8 -19.6,-5.6 l 0.6,-0.2 c 7.9,1.8 30.1,7.9 23.6,6.1 0.9,-1.2 4.1,0.7 4.3,-0.6 a 99.183,99.183 0 0 1 13.1,3.6 c 0.2,5.2 1.8,7 4.1,6.6 0.1,-0.7 0.2,-1.4 0.3,-2 0.2,0.2 1.1,0.2 1.6,-2 0.7,-3.3 -0.5,-1.2 -1,-0.9 -0.1,0 -0.1,-0.1 -0.2,-0.1 v -0.5 c 4,-3.9 2.6,-15.1 7.4,-19.1 5.6,-20.4 12.4,-44.9 18.5,-63.1 l -0.5,0.8 c 0.2,-2.1 2.1,-6.9 2.8,-6.8 l -0.8,-1.2 c 1.6,-7 2.6,4.5 4.7,-3.4 -1.9,3.8 -2.6,-0.1 -1.5,-3 -0.5,0.6 -2.3,0 -2.7,1.6 l -2.4,3.8 c 1.8,0.7 -1.2,7.3 -2.3,9.6 0,-0.1 -0.1,-0.2 -0.1,-0.3 0.3,-0.9 0.2,-0.8 -0.1,-0.3 a 7.66,7.66 0 0 1 1.3,-6.2 89.094,89.094 0 0 1 2.7,-9.2 c -1,1.6 -2.5,2.6 -3.5,6.4 z m -82.2,76.9 a 15.425,15.425 0 0 0 1.7,0.5 c -1,-0.3 -1.7,-0.5 -2.2,-0.6 a 1.087,1.087 0 0 0 0.5,0.1 z m 12,3.6 -1.2,-0.3 a 6.864,6.864 0 0 1 2.3,0.3 z"
               inkscape:connector-curvature="0"
               style="fill:#c1dcf2" />
          </g>
          <g
             id="XMLID_5777_">
            <path
               id="XMLID_5778_"
               d="m 276.7,225.4 a 7.926,7.926 0 0 0 2.5,-3.7 c -0.1,-0.2 -0.2,-0.5 -0.4,-0.3 a 40.71,40.71 0 0 0 2.6,-7.7 c -0.2,0.4 -0.4,0.8 -0.6,1.3 -1.4,3.5 -2.8,7 -4.1,10.4 z"
               inkscape:connector-curvature="0"
               style="fill:#c1dcf2" />
          </g>
          <g
             id="XMLID_5775_">
            <path
               id="XMLID_5776_"
               d="m 278,233.9 0.2,0.2 c -0.1,-0.2 -0.1,-0.2 -0.2,-0.2 z"
               inkscape:connector-curvature="0"
               style="fill:#c1dcf2" />
          </g>
        </g>
        <text
           xml:space="preserve"
           style="font-style:normal;font-weight:normal;font-size:75.4337616px;line-height:1.25;font-family:sans-serif;letter-spacing:0px;word-spacing:0px;fill:#000000;fill-opacity:1;stroke:none;stroke-width:1.88584411"
           x="84.284889"
           y="224.5708"
           id="text3826"
           transform="scale(0.88568333,1.1290717)"><tspan
             sodipodi:role="line"
             id="tspan3824"
             x="84.284889"
             y="224.5708"
             style="font-style:italic;font-variant:normal;font-weight:bold;font-stretch:normal;font-family:'Segoe Script';-inkscape-font-specification:'Segoe Script Bold Italic';stroke-width:1.88584411">Anime</tspan></text>
      </g>
    </g>
  </g>
</svg>
